<svg width="68" height="78" viewBox="0 0 68 78" fill="none" xmlns="http://www.w3.org/2000/svg">
<g filter="url(#filter0_d_4002_2)">
<path d="M7.368 68.512C6.536 68 5.768 67.36 5.064 66.592C4.36 65.888 4.2 64.864 4.584 63.52C4.52 62.752 4.552 62.016 4.68 61.312C4.872 60.608 5 60.128 5.064 59.872C5.384 59.872 5.576 59.712 5.64 59.392C5.704 59.008 5.736 58.688 5.736 58.432C5.736 57.92 5.928 57.056 6.312 55.84C6.696 54.624 7.08 53.344 7.464 52C7.976 50.912 8.456 49.76 8.904 48.544C9.416 47.328 9.672 46.592 9.672 46.336C9.672 45.824 9.8 45.312 10.056 44.8C10.312 44.224 10.6 43.68 10.92 43.168C11.24 42.4 11.464 41.568 11.592 40.672C11.784 39.712 11.88 38.976 11.88 38.464C12.264 37.632 12.68 36.736 13.128 35.776C13.576 34.816 13.928 33.824 14.184 32.8C14.568 31.712 15.144 30.112 15.912 28C16.68 25.824 17.48 23.648 18.312 21.472C18.888 20.256 19.432 19.008 19.944 17.728C20.52 16.384 21.032 15.264 21.48 14.368C21.928 13.408 22.248 12.928 22.44 12.928C22.44 12.928 22.44 12.832 22.44 12.64C22.44 12.384 22.44 12.128 22.44 11.872C22.44 11.552 22.696 10.944 23.208 10.048C23.72 9.088 24.2 8.096 24.648 7.07199C25.288 6.112 25.736 5.216 25.992 4.384C26.248 3.488 26.376 3.04 26.376 3.04C26.376 3.04 26.504 2.848 26.76 2.464C27.016 2.016 27.272 1.664 27.528 1.408C29.192 0.511999 30.6 0.0639992 31.752 0.0639992C32.968 0.0639992 33.8 0.831999 34.248 2.368C34.76 3.776 34.984 4.768 34.92 5.344C34.856 5.856 34.632 6.496 34.248 7.264C33.736 8.416 33.064 9.888 32.232 11.68C31.4 13.408 30.536 15.264 29.64 17.248C28.744 19.232 27.88 21.152 27.048 23.008C26.28 24.8 25.64 26.336 25.128 27.616C24.68 28.896 24.456 29.696 24.456 30.016L20.424 39.904C20.168 40.352 19.752 41.504 19.176 43.36C18.6 45.152 17.928 47.328 17.16 49.888C16.392 52.384 15.592 54.944 14.76 57.568C13.992 60.128 13.224 62.464 12.456 64.576C12.072 65.664 11.72 66.56 11.4 67.264C11.08 68.032 10.76 68.608 10.44 68.992C10.12 69.376 9.736 69.568 9.288 69.568C9.032 69.568 8.744 69.472 8.424 69.28C8.104 69.088 7.752 68.832 7.368 68.512ZM41.352 68.32C40.776 68.384 39.976 68.096 38.952 67.456C37.992 66.88 36.936 66.144 35.784 65.248C34.696 64.352 33.64 63.424 32.616 62.464C31.656 61.504 30.888 60.672 30.312 59.968C29.288 58.496 27.976 56.512 26.376 54.016C24.84 51.52 23.688 48.896 22.92 46.144C22.472 44.096 21.992 42.464 21.48 41.248C21.032 39.968 20.808 38.848 20.808 37.888L20.904 31.936L27.912 31.456C28.232 34.912 28.744 37.792 29.448 40.096C30.152 42.336 30.984 44.352 31.944 46.144C32.712 47.808 33.544 49.44 34.44 51.04C35.4 52.64 36.456 53.984 37.608 55.072C39.08 56.672 40.392 57.856 41.544 58.624C42.696 59.392 43.56 59.776 44.136 59.776C45.352 60.352 46.248 60.896 46.824 61.408C47.4 61.92 47.784 62.368 47.976 62.752C48.168 63.136 48.232 63.488 48.168 63.808C48.232 64 48.2 64.416 48.072 65.056C47.944 65.76 47.752 66.432 47.496 67.072C47.24 67.776 46.888 68.224 46.44 68.416C45.992 68.864 45.416 69.12 44.712 69.184C44.008 69.312 42.888 69.024 41.352 68.32ZM19.08 31.648L26.088 26.464C26.28 26.272 26.824 25.76 27.72 24.928C28.68 24.032 30.504 22.56 33.192 20.512L45.864 10.24C47.464 9.408 48.936 8.48 50.28 7.456C51.624 6.432 52.744 5.632 53.64 5.056C54.728 4.288 55.848 3.488 57 2.65599C58.152 1.824 58.856 1.44 59.112 1.504C59.624 1.248 60.232 1.504 60.936 2.272C61.64 2.976 62.216 3.84 62.664 4.86399C63.176 5.824 63.4 6.56 63.336 7.07199C63.464 7.712 63.368 8.256 63.048 8.704C62.728 9.152 61.896 9.76 60.552 10.528C58.952 11.232 57.672 11.904 56.712 12.544C55.816 13.184 55.304 13.664 55.176 13.984C55.176 13.984 54.504 14.496 53.16 15.52C51.816 16.544 50.216 17.696 48.36 18.976C45.8 20.704 43.688 22.24 42.024 23.584C40.424 24.864 39.368 25.888 38.856 26.656C38.6 26.656 38.344 26.752 38.088 26.944C37.896 27.136 37.672 27.2 37.416 27.136C37.416 27.136 37.16 27.328 36.648 27.712C36.136 28.032 35.752 28.384 35.496 28.768C35.368 29.088 35.08 29.504 34.632 30.016C34.248 30.528 33.768 30.752 33.192 30.688C32.744 30.944 31.944 31.488 30.792 32.32C29.64 33.088 28.424 33.952 27.144 34.912C25.928 35.872 24.872 36.736 23.976 37.504C23.08 38.272 22.6 38.72 22.536 38.848L19.08 31.648Z" fill="#240340"/>
</g>
<defs>
<filter id="filter0_d_4002_2" x="0.00805664" y="0.0640259" width="67.5199" height="77.504" filterUnits="userSpaceOnUse" color-interpolation-filters="sRGB">
<feFlood flood-opacity="0" result="BackgroundImageFix"/>
<feColorMatrix in="SourceAlpha" type="matrix" values="0 0 0 0 0 0 0 0 0 0 0 0 0 0 0 0 0 0 127 0" result="hardAlpha"/>
<feOffset dy="4"/>
<feGaussianBlur stdDeviation="2"/>
<feComposite in2="hardAlpha" operator="out"/>
<feColorMatrix type="matrix" values="0 0 0 0 0 0 0 0 0 0 0 0 0 0 0 0 0 0 0.25 0"/>
<feBlend mode="normal" in2="BackgroundImageFix" result="effect1_dropShadow_4002_2"/>
<feBlend mode="normal" in="SourceGraphic" in2="effect1_dropShadow_4002_2" result="shape"/>
</filter>
</defs>
</svg>
